<svg width="26" height="26" viewBox="0 0 26 26" fill="none" xmlns="http://www.w3.org/2000/svg">
<path d="M6.50001 10.8333C5.30834 10.8333 4.33334 11.8083 4.33334 13C4.33334 14.1917 5.30834 15.1667 6.50001 15.1667C7.69168 15.1667 8.66668 14.1917 8.66668 13C8.66668 11.8083 7.69168 10.8333 6.50001 10.8333ZM19.5 10.8333C18.3083 10.8333 17.3333 11.8083 17.3333 13C17.3333 14.1917 18.3083 15.1667 19.5 15.1667C20.6917 15.1667 21.6667 14.1917 21.6667 13C21.6667 11.8083 20.6917 10.8333 19.5 10.8333ZM13 10.8333C11.8083 10.8333 10.8333 11.8083 10.8333 13C10.8333 14.1917 11.8083 15.1667 13 15.1667C14.1917 15.1667 15.1667 14.1917 15.1667 13C15.1667 11.8083 14.1917 10.8333 13 10.8333Z" fill="#656F77"/>
</svg>
