<svg width="61" height="61" viewBox="0 0 61 61" fill="none" xmlns="http://www.w3.org/2000/svg">
<circle cx="30.5" cy="30.437" r="30.3426" fill="white"/>
<path d="M38.8483 22.4809L37.547 21.1796L32.3881 26.3293L32.3881 15.0979L30.5424 15.0979L30.5424 26.3293L25.3835 21.1796L24.0822 22.4809L31.4652 29.8639L38.8483 22.4809Z" fill="#191D21"/>
<path d="M23.8434 25.4957H18.4712C17.4949 25.4957 16.6993 26.2672 16.6993 27.2139V28.9321H27.2799L23.8434 25.4957Z" fill="#191D21"/>
<path d="M35.412 28.9321H45.0502V27.2139C45.0502 26.2672 44.2564 25.4957 43.2783 25.4957H38.8485L35.412 28.9321Z" fill="#191D21"/>
<path fill-rule="evenodd" clip-rule="evenodd" d="M16.6993 42.678V34.0868H45.0502V42.678C45.0502 43.6265 44.2564 44.3963 43.2783 44.3963H18.4712C17.4949 44.3963 16.6993 43.6265 16.6993 42.678ZM24.673 37.5233H21.1291C20.6401 37.5233 20.2432 37.9082 20.2432 38.3824C20.2432 38.8567 20.6401 39.2416 21.1291 39.2416H24.673C25.1621 39.2416 25.559 38.8567 25.559 38.3824C25.559 37.9082 25.1621 37.5233 24.673 37.5233Z" fill="#191D21"/>
</svg>
