<svg width="38" height="41" viewBox="0 0 38 41" fill="none" xmlns="http://www.w3.org/2000/svg">
<g filter="url(#filter0_d_1007_225)">
<path d="M26.8483 10.4809L25.547 9.17964L20.3881 14.3293L20.3881 3.09785L18.5424 3.09785L18.5424 14.3293L13.3835 9.17964L12.0822 10.4809L19.4652 17.8639L26.8483 10.4809Z" fill="#191D21"/>
<path d="M11.8434 13.4957H6.47124C5.49491 13.4957 4.69931 14.2672 4.69931 15.2139V16.9321H15.2799L11.8434 13.4957Z" fill="#191D21"/>
<path d="M23.412 16.9321H33.0502V15.2139C33.0502 14.2672 32.2564 13.4957 31.2783 13.4957H26.8485L23.412 16.9321Z" fill="#191D21"/>
<path fill-rule="evenodd" clip-rule="evenodd" d="M4.69931 30.678V22.0868H33.0502V30.678C33.0502 31.6265 32.2564 32.3963 31.2783 32.3963H6.47124C5.49491 32.3963 4.69931 31.6265 4.69931 30.678ZM12.673 25.5233H9.12914C8.64009 25.5233 8.24317 25.9082 8.24317 26.3824C8.24317 26.8567 8.64009 27.2416 9.12914 27.2416H12.673C13.1621 27.2416 13.559 26.8567 13.559 26.3824C13.559 25.9082 13.1621 25.5233 12.673 25.5233Z" fill="#191D21"/>
</g>
<defs>
<filter id="filter0_d_1007_225" x="-3.91525" y="0.021801" width="44.9153" height="44.9152" filterUnits="userSpaceOnUse" color-interpolation-filters="sRGB">
<feFlood flood-opacity="0" result="BackgroundImageFix"/>
<feColorMatrix in="SourceAlpha" type="matrix" values="0 0 0 0 0 0 0 0 0 0 0 0 0 0 0 0 0 0 127 0" result="hardAlpha"/>
<feOffset dy="4"/>
<feGaussianBlur stdDeviation="2"/>
<feComposite in2="hardAlpha" operator="out"/>
<feColorMatrix type="matrix" values="0 0 0 0 0 0 0 0 0 0 0 0 0 0 0 0 0 0 0.25 0"/>
<feBlend mode="normal" in2="BackgroundImageFix" result="effect1_dropShadow_1007_225"/>
<feBlend mode="normal" in="SourceGraphic" in2="effect1_dropShadow_1007_225" result="shape"/>
</filter>
</defs>
</svg>
