<svg width="37" height="38" viewBox="0 0 37 38" fill="none" xmlns="http://www.w3.org/2000/svg">
<circle cx="18.5" cy="18.9818" r="18.25" fill="white" stroke="#ACB8C2" stroke-width="0.5"/>
<path d="M19 9.48184C16.8013 9.48184 15 11.2831 15 13.4818V14.4818H12C11.7348 14.4819 11.4805 14.5872 11.2929 14.7748C11.1054 14.9623 11 15.2166 11 15.4818V25.4818C11 27.6805 12.8013 29.4818 15 29.4818H23C25.1987 29.4818 27 27.6805 27 25.4818V15.4818C27 15.2166 26.8946 14.9623 26.7071 14.7748C26.5195 14.5872 26.2652 14.4819 26 14.4818H23V13.4818C23 11.2831 21.1987 9.48184 19 9.48184ZM19 11.4818C20.1253 11.4818 21 12.3565 21 13.4818V14.4818H17V13.4818C17 12.3565 17.8747 11.4818 19 11.4818Z" fill="black"/>
</svg>
