<svg width="37" height="38" viewBox="0 0 37 38" fill="none" xmlns="http://www.w3.org/2000/svg">
<circle cx="18.5" cy="18.9818" r="18.25" fill="white" stroke="#ACB8C2" stroke-width="0.5"/>
<path d="M14 25.4818C12.9 25.4818 12.01 26.3818 12.01 27.4818C12.01 28.5818 12.9 29.4818 14 29.4818C15.1 29.4818 16 28.5818 16 27.4818C16 26.3818 15.1 25.4818 14 25.4818ZM8 9.48184V11.4818H10L13.6 19.0718L12.25 21.5218C12.09 21.8018 12 22.1318 12 22.4818C12 23.5818 12.9 24.4818 14 24.4818H26V22.4818H14.42C14.28 22.4818 14.17 22.3718 14.17 22.2318L14.2 22.1118L15.1 20.4818H22.55C23.3 20.4818 23.96 20.0718 24.3 19.4518L27.88 12.9618C27.96 12.8218 28 12.6518 28 12.4818C28 11.9318 27.55 11.4818 27 11.4818H12.21L11.27 9.48184H8ZM24 25.4818C22.9 25.4818 22.01 26.3818 22.01 27.4818C22.01 28.5818 22.9 29.4818 24 29.4818C25.1 29.4818 26 28.5818 26 27.4818C26 26.3818 25.1 25.4818 24 25.4818Z" fill="#191D21"/>
</svg>
