<svg width="26" height="26" viewBox="0 0 26 26" fill="none" xmlns="http://www.w3.org/2000/svg">
<path d="M13 2.16666C7.01999 2.16666 2.16666 7.01999 2.16666 13C2.16666 18.98 7.01999 23.8333 13 23.8333C18.98 23.8333 23.8333 18.98 23.8333 13C23.8333 7.01999 18.98 2.16666 13 2.16666ZM13 5.41666C14.7983 5.41666 16.25 6.86832 16.25 8.66666C16.25 10.465 14.7983 11.9167 13 11.9167C11.2017 11.9167 9.74999 10.465 9.74999 8.66666C9.74999 6.86832 11.2017 5.41666 13 5.41666ZM13 20.8C10.2917 20.8 7.89749 19.4133 6.49999 17.3117C6.53249 15.1558 10.8333 13.975 13 13.975C15.1558 13.975 19.4675 15.1558 19.5 17.3117C18.1025 19.4133 15.7083 20.8 13 20.8Z" fill="#656F77"/>
</svg>
